HIERARCHY
ROOT Hips
{
	OFFSET 0.00000 0.00000 0.00000
	CHANNELS 6 Xposition Yposition Zposition Zrotation Yrotation Xrotation 
	JOINT LHipJoint
	{
		OFFSET 0 0 0
		CHANNELS 3 Zrotation Yrotation Xrotation
		JOINT LeftUpLeg
		{
			OFFSET 1.53139 -1.83434 0.76626
			CHANNELS 3 Zrotation Yrotation Xrotation
			JOINT LeftLeg
			{
				OFFSET 2.56112 -7.03663 0.00000
				CHANNELS 3 Zrotation Yrotation Xrotation
				JOINT LeftFoot
				{
					OFFSET 2.59983 -7.14299 0.00000
					CHANNELS 3 Zrotation Yrotation Xrotation
					JOINT LeftToeBase
					{
						OFFSET 0.13742 -0.37757 2.00054
						CHANNELS 3 Zrotation Yrotation Xrotation
						End Site
						{
							OFFSET 0.00000 -0.00000 1.02897
						}
					}
				}
			}
		}
	}
	JOINT RHipJoint
	{
		OFFSET 0 0 0
		CHANNELS 3 Zrotation Yrotation Xrotation
		JOINT RightUpLeg
		{
			OFFSET -1.40122 -1.83435 0.76627
			CHANNELS 3 Zrotation Yrotation Xrotation
			JOINT RightLeg
			{
				OFFSET -2.54052 -6.98003 0.00000
				CHANNELS 3 Zrotation Yrotation Xrotation
				JOINT RightFoot
				{
					OFFSET -2.63179 -7.23079 0.00000
					CHANNELS 3 Zrotation Yrotation Xrotation
					JOINT RightToeBase
					{
						OFFSET -0.24131 -0.66299 2.03908
						CHANNELS 3 Zrotation Yrotation Xrotation
						End Site
						{
							OFFSET -0.00000 -0.00000 1.07391
						}
					}
				}
			}
		}
	}
	JOINT LowerBack
	{
		OFFSET 0 0 0
		CHANNELS 3 Zrotation Yrotation Xrotation
		JOINT Spine
		{
			OFFSET 0.01174 2.10302 -0.29778
			CHANNELS 3 Zrotation Yrotation Xrotation
			JOINT Spine1
			{
				OFFSET 0.00772 2.13227 -0.01247
				CHANNELS 3 Zrotation Yrotation Xrotation
				JOINT Neck
				{
					OFFSET 0 0 0
					CHANNELS 3 Zrotation Yrotation Xrotation
					JOINT Neck1
					{
						OFFSET -0.09219 1.60848 0.31481
						CHANNELS 3 Zrotation Yrotation Xrotation
						JOINT Head
						{
							OFFSET 0.13974 1.65456 -0.31134
							CHANNELS 3 Zrotation Yrotation Xrotation
							End Site
							{
								OFFSET 0.04742 1.69515 -0.14578
							}
						}
					}
				}
				JOINT LeftShoulder
				{
					OFFSET 0 0 0
					CHANNELS 3 Zrotation Yrotation Xrotation
					JOINT LeftArm
					{
						OFFSET 3.24909 1.02882 -0.23993
						CHANNELS 3 Zrotation Yrotation Xrotation
						JOINT LeftForeArm
						{
							OFFSET 5.32955 -0.00000 -0.00000
							CHANNELS 3 Zrotation Yrotation Xrotation
							JOINT LeftHand
							{
								OFFSET 3.69232 -0.00000 -0.00000
								CHANNELS 3 Zrotation Yrotation Xrotation
								JOINT LeftFingerBase
								{
									OFFSET 0 0 0
									CHANNELS 3 Zrotation Yrotation Xrotation
									JOINT LeftHandIndex1
									{
										OFFSET 0.53660 -0.00000 -0.00000
										CHANNELS 3 Zrotation Yrotation Xrotation
										End Site
										{
											OFFSET 0.43262 -0.00000 -0.00000
										}
									}
								}
								JOINT LThumb
								{
									OFFSET 0 0 0
									CHANNELS 3 Zrotation Yrotation Xrotation
									End Site
									{
										OFFSET 0.43922 -0.00000 0.43922
									}
								}
							}
						}
					}
				}
				JOINT RightShoulder
				{
					OFFSET 0 0 0
					CHANNELS 3 Zrotation Yrotation Xrotation
					JOINT RightArm
					{
						OFFSET -3.21387 0.93002 -0.34594
						CHANNELS 3 Zrotation Yrotation Xrotation
						JOINT RightForeArm
						{
							OFFSET -5.23431 -0.00000 0.00000
							CHANNELS 3 Zrotation Yrotation Xrotation
							JOINT RightHand
							{
								OFFSET -3.55301 -0.00000 -0.00000
								CHANNELS 3 Zrotation Yrotation Xrotation
								JOINT RightFingerBase
								{
									OFFSET 0 0 0
									CHANNELS 3 Zrotation Yrotation Xrotation
									JOINT RightHandIndex1
									{
										OFFSET -0.77252 -0.00000 -0.00000
										CHANNELS 3 Zrotation Yrotation Xrotation
										End Site
										{
											OFFSET -0.62283 -0.00000 -0.00000
										}
									}
								}
								JOINT RThumb
								{
									OFFSET 0 0 0
									CHANNELS 3 Zrotation Yrotation Xrotation
									End Site
									{
										OFFSET -0.63234 -0.00000 0.63234
									}
								}
							}
						}
					}
				}
			}
		}
	}
}
MOTION
Frames: 16
Frame Time: 0.047619
0.00 0.00 0.00 0 0 0 0 0 0 -21 0 0 0 0 0 0 0 0 0 0 0 0 0 0 21 0 0 0 0 0 0 0 0 0 0 0 0 0 0 0 0 0 0 0 0 0 0 -16 0 0 21 0 0 11 0 0 0 -8 0 0 0 0 0 0 0 0 0 0 0 0 0 0 0 0 0 0 0 0 8 0 0 0 0 0 0 0 0 0 0 0 0 0 0 0 0 0
0.00 0.00 0.00 -29.9225 85.2136 -27.1931 0.0000 0.0000 0.0000 -17.0577 -4.1113 -17.1358 4.2718 12.5136 37.5739 0.2944 -8.8624 -10.7176 0.1969 -2.8575 -7.8822 0.0000 0.0000 0.0000 28.1591 -2.4758 -7.0687 -1.6284 -8.0450 22.8508 -0.9872 -0.1240 -18.8312 -0.1201 -2.2342 6.1534 4.4649 1.0246 9.4643 1.2774 1.9426 0.4603 -1.4389 0.8918 -4.7292 -11.5619 -4.7461 -16.6687 4.7777 -3.6788 37.0336 3.5805 -2.0783 16.5026 0.0000 0.0000 0.0000 -87.2140 1.9607 20.5092 14.1114 -22.8937 -2.8713 -0.0000 -0.0000 7.4318 24.0926 23.4280 10.0814 -7.1250 0.0000 -0.0000 -5.4810 55.2884 -1.3874 0.0000 0.0000 0.0000 85.5953 0.1338 12.2505 -17.2991 27.2504 -4.2234 0.0000 0.0000 5.8360 -14.3666 8.5315 -2.1761 7.1250 -0.0000 -0.0000 9.0230 -21.2212 5.2088
0.00 0.00 0.00 -94.6582 87.1014 -92.6654 0.0000 0.0000 0.0000 -14.2067 -8.3177 -25.8685 1.7317 8.2834 23.5783 0.1129 -2.0415 -5.9678 0.2524 -3.2323 -8.9262 0.0000 0.0000 0.0000 29.5344 -7.0463 3.3323 -0.3650 -3.8808 10.7417 -0.6554 -4.3399 -17.4826 -0.1446 -2.4503 6.7519 5.0690 2.4200 11.8973 0.7765 3.9794 1.2053 -2.6686 1.8863 -5.1106 -12.0397 -5.6811 -15.8603 5.2350 -5.0296 37.0604 3.6318 -2.5963 16.5282 -0.0000 -0.0000 0.0000 -88.4524 6.6661 17.6667 14.6899 -23.7124 -3.1002 -0.0000 -0.0000 7.0762 27.4953 22.7779 11.3926 -7.1250 0.0000 -0.0000 -1.6461 55.3039 -0.4165 -0.0000 -0.0000 0.0000 85.3151 0.2742 16.7034 -17.4069 27.3911 -4.2729 0.0000 0.0000 3.9364 -14.9355 8.5451 -2.2697 7.1250 -0.0000 -0.0000 8.6135 -21.1814 4.9748
0.00 0.00 0.00 -69.6097 87.1434 -66.7363 0.0000 0.0000 0.0000 -18.0577 -5.6099 -18.3616 0.9181 6.1049 17.0892 -0.0041 -1.5887 1.7612 0.1842 2.7646 7.6241 0.0000 0.0000 0.0000 23.9946 -7.3714 5.7257 -1.9254 -8.7089 24.8888 -0.0975 -0.8269 -6.2602 -0.0415 1.3145 -3.6147 3.1125 2.5434 11.9036 0.4104 3.8594 0.7800 -1.9561 1.8398 -5.6738 -11.2363 -4.9019 -15.7623 4.6445 -3.6416 39.2596 3.6013 -1.9761 17.4731 -0.0000 0.0000 0.0000 -88.6441 8.4075 17.8213 16.3901 -26.0468 -3.8157 -0.0000 -0.0000 5.4022 20.6143 23.7165 8.6034 -7.1250 0.0000 -0.0000 -9.2259 54.8865 -2.2544 -0.0000 0.0000 0.0000 87.2838 -3.3048 14.2270 -15.4562 24.7778 -3.4149 0.0000 0.0000 7.7773 -13.8191 8.2855 -2.0301 7.1250 -0.0000 -0.0000 9.4262 -21.4949 5.3885
0.00 0.00 0.00 -34.5115 88.1759 -32.7338 0.0000 0.0000 0.0000 -21.5967 -2.0162 -13.2310 0.6301 5.0792 14.1346 -0.0383 -3.5507 0.4902 0.1083 2.1223 5.8437 0.0000 0.0000 0.0000 19.8742 -6.6827 -1.7278 -5.0314 -13.4191 40.9582 -0.1852 -2.7211 7.6448 -0.2113 -2.9596 8.1662 1.0837 2.2497 12.3730 0.1303 3.1911 1.1766 -1.0170 1.5643 -5.6445 -10.8162 -4.4563 -15.6288 4.3844 -2.9536 39.8273 3.5680 -1.6707 17.6530 0.0000 -0.0000 0.0000 -87.3218 8.4986 20.3028 17.6066 -27.6506 -4.3652 -0.0000 -0.0000 4.4836 20.0113 23.6231 8.3031 -7.1250 0.0000 -0.0000 -9.8083 54.6727 -2.3475 0.0000 -0.0000 0.0000 86.7535 -3.1580 13.8433 -16.1734 25.7552 -3.7210 0.0000 0.0000 6.9570 -13.9152 8.5993 -2.1216 7.1250 -0.0000 -0.0000 9.3448 -21.1724 5.4100
0.00 0.00 0.00 25.4287 87.4547 26.1197 0.0000 0.0000 0.0000 -25.0968 1.6737 -7.5428 0.3253 3.6656 10.1378 -0.0597 -4.7582 -0.3664 0.1279 2.3053 6.3502 0.0000 0.0000 0.0000 16.1939 -3.0370 -10.1436 -9.2782 -16.9834 57.0472 -0.1673 -7.4306 8.3577 -0.4203 -4.1611 11.5303 -1.5266 1.8021 12.8815 -0.1558 2.2275 1.5061 0.3036 1.1524 -5.6865 -10.7619 -3.8070 -15.4368 4.0084 -1.7792 40.3798 3.6339 -1.2462 17.7770 0.0000 0.0000 0.0000 -85.2833 7.0809 22.0979 18.3745 -28.6340 -4.7273 -0.0000 -0.0000 4.1275 20.9379 23.5161 8.6802 -7.1250 0.0000 -0.0000 -8.8096 54.7452 -2.1211 0.0000 0.0000 0.0000 86.5334 -1.9226 14.4591 -17.7480 27.8333 -4.4310 0.0000 0.0000 5.7473 -15.3489 8.5856 -2.3465 7.1250 -0.0000 -0.0000 8.3150 -21.1204 4.8103
0.00 0.00 0.00 64.7079 87.2300 64.3764 0.0000 0.0000 0.0000 -27.6691 2.5062 -3.8530 0.6703 5.2355 14.5816 0.0910 -6.1502 -6.4424 0.0260 1.0400 2.8589 0.0000 0.0000 0.0000 14.2444 1.6369 -21.4160 -10.1593 -17.4984 60.0194 -0.0398 -3.4065 -6.4623 -0.0650 -1.6445 4.5241 -2.5716 0.6343 13.3136 -0.2879 0.5311 1.7970 1.0520 0.3452 -5.5905 -10.7054 -3.2509 -14.9806 3.6350 -0.7474 41.0247 3.6742 -0.8764 17.9147 -0.0000 0.0000 0.0000 -82.8280 2.2124 18.1302 18.7438 -29.0990 -4.9056 -0.0000 -0.0000 3.6599 23.0851 24.6115 10.0656 -7.1250 0.0000 -0.0000 -7.0012 56.3140 -1.9492 -0.0000 0.0000 0.0000 86.5169 -0.8423 16.0064 -20.6313 31.3954 -5.8567 0.0000 0.0000 4.1194 -13.9694 9.4586 -2.3409 7.1250 -0.0000 -0.0000 9.2761 -20.2976 5.5546
0.00 0.00 0.00 94.9890 86.9630 94.7123 0.0000 0.0000 0.0000 -28.6067 2.3131 -1.4910 0.8803 5.9812 16.7299 0.2880 -6.6274 -9.9506 0.0599 1.5787 4.3426 0.0000 0.0000 0.0000 14.1473 4.2391 -25.1472 -5.9885 -14.4172 44.9355 -0.3872 -2.6822 -13.0462 -0.2386 -3.1436 8.6789 -3.2912 0.0370 13.8537 0.0686 -0.3522 1.8965 1.9954 -0.0647 -5.7418 -11.0265 -3.2500 -14.7836 3.7875 -0.7850 40.6525 3.7717 -0.9187 17.6562 0.0000 0.0000 0.0000 -81.4946 -0.3213 20.5111 20.2066 -30.8904 -5.6370 -0.0000 -0.0000 1.3536 25.4600 25.2508 11.4808 -7.1250 0.0000 -0.0000 -4.6857 57.5000 -1.4364 0.0000 0.0000 0.0000 86.0925 -0.7019 16.8468 -21.4174 32.3123 -6.2716 0.0000 0.0000 4.5300 -15.2365 9.4992 -2.5738 7.1250 -0.0000 -0.0000 8.3721 -20.1910 5.0212
0.00 0.00 0.00 127.6400 84.0251 129.0830 0.0000 0.0000 0.0000 -30.2289 4.8629 8.7906 0.0302 1.1226 3.0862 0.0393 -5.2653 -4.8241 0.0109 0.6741 1.8525 0.0000 0.0000 0.0000 14.1814 5.0929 -27.8152 -1.1641 -6.8494 19.2700 0.2374 -11.0576 -11.4635 -0.0026 -0.3290 0.9041 -4.7066 -0.5717 13.1081 0.0213 -1.3288 1.9345 2.9072 -0.5279 -5.1987 -10.9644 -4.0449 -14.3163 4.1699 -2.2151 40.7227 3.6788 -1.4279 17.7427 0.0000 0.0000 0.0000 -80.2151 -3.8979 26.6722 21.2947 -32.1708 -6.2061 -0.0000 -0.0000 0.9862 23.7544 23.8368 10.0852 -7.1250 0.0000 -0.0000 -5.9878 55.6472 -1.5686 0.0000 0.0000 0.0000 86.6928 -1.1887 15.1248 -20.4059 31.1282 -5.7397 0.0000 0.0000 5.0404 -13.3149 9.5117 -2.2396 7.1250 -0.0000 -0.0000 9.7400 -20.2757 5.8452
0.00 0.00 0.00 151.1130 82.8851 154.9460 0.0000 0.0000 0.0000 -24.7920 1.6284 0.5866 2.8633 10.4705 30.5141 0.0536 -8.0650 12.5295 0.0133 0.7440 2.0448 0.0000 0.0000 0.0000 20.5283 1.7095 -24.7761 -1.4508 -7.6138 21.5472 0.3003 -9.7272 -4.7806 -0.7539 -5.5457 15.4719 -1.4752 -0.9200 14.8901 1.5721 -1.1910 3.0155 2.7133 -0.4894 -5.0807 -11.0589 -4.6413 -13.5520 4.1287 -3.1278 40.1665 3.4820 -1.7946 17.3396 0.0000 -0.0000 0.0000 -85.3065 -3.6828 33.2597 20.8092 -31.6049 -5.9496 -0.0000 -0.0000 2.5091 22.4864 23.0151 9.1929 -7.1250 0.0000 -0.0000 -7.0131 54.5335 -1.6488 0.0000 -0.0000 0.0000 85.9895 -1.8761 13.1250 -17.4144 27.4009 -4.2763 0.0000 0.0000 5.3017 -13.0172 8.3472 -1.9222 7.1250 -0.0000 -0.0000 10.0005 -21.4652 5.7334
0.00 0.00 0.00 186.5400 84.5687 190.4120 0.0000 0.0000 0.0000 -17.4965 -3.0030 -9.9452 6.4157 14.8194 46.6282 -0.6536 -15.2213 11.6895 0.1536 -2.5253 -6.9599 0.0000 0.0000 0.0000 26.2387 -0.3560 -21.1095 -1.2063 -6.9678 19.6201 0.1374 -7.5002 -6.6209 -0.8976 -6.0383 16.8955 1.6287 -1.0027 17.4797 2.8168 -0.5783 3.7545 2.1916 -0.1837 -5.7545 -10.0883 -4.4874 -13.0789 4.1396 -3.2373 40.1412 3.2926 -1.6921 17.1675 -0.0000 -0.0000 0.0000 -84.8461 -4.3347 36.4955 21.1690 -32.0251 -6.1393 -0.0000 -0.0000 3.7572 22.4540 22.6622 9.0474 -7.1250 0.0000 -0.0000 -6.9184 54.1601 -1.5633 -0.0000 -0.0000 0.0000 84.9011 -0.5580 15.8823 -19.2044 29.6718 -5.1316 0.0000 0.0000 4.3406 -12.9489 9.1357 -2.0907 7.1250 -0.0000 -0.0000 10.0152 -20.6723 5.9246
0.00 0.00 0.00 -12.3551 84.1605 -1.9403 0.0000 0.0000 0.0000 -7.5831 -18.3364 -33.6778 0.4312 4.2143 11.6803 0.0822 -2.3885 -5.1127 0.4206 -4.1625 -11.5342 0.0000 0.0000 0.0000 24.7960 8.2220 -24.6525 -4.1322 -12.3343 36.9251 -1.1370 -0.9454 -20.5144 -0.4016 -4.0684 11.2691 -1.7981 0.3038 32.0245 0.5614 0.7677 9.3894 1.3505 0.7157 -6.8498 -9.4000 -2.4767 -15.5659 5.7188 -1.6778 33.0404 3.7539 -0.8616 14.0132 -0.0000 -0.0000 0.0000 -83.1978 -26.9862 37.1426 22.7511 -33.8155 -6.9993 -0.0000 0.0000 -0.6246 26.0461 25.1557 11.7362 -7.1250 0.0000 -0.0000 -4.0038 57.5313 -1.2299 -0.0000 -0.0000 0.0000 80.9511 8.0225 27.0206 -43.7742 50.1536 -21.2934 0.0000 -0.0000 -3.9140 -17.0790 9.9712 -3.0452 7.1250 -0.0000 -0.0000 7.0532 -19.5990 4.3112
0.00 0.00 0.00 -14.0762 78.9967 2.3882 0.0000 0.0000 0.0000 -3.2920 -19.2924 -44.5542 1.1607 6.8395 19.2408 0.0049 -6.0836 8.8123 0.1042 -2.0815 -5.7310 0.0000 0.0000 0.0000 22.8133 9.1380 -33.9880 -6.3915 -14.7973 46.5336 -1.8568 5.7439 -24.5736 -0.1006 -2.0453 5.6308 -3.6604 0.8484 38.3053 -0.9806 0.8297 11.0719 0.5007 0.8548 -6.4525 -8.7952 -1.7415 -20.2236 5.7752 -0.7439 30.3713 3.7351 -0.4046 13.7552 -0.0000 -0.0000 0.0000 -80.5998 -41.0946 35.3507 21.8133 -32.7654 -6.4845 -0.0000 0.0000 -0.8242 30.3205 25.8572 14.3089 -7.1250 0.0000 -0.0000 0.6077 59.2907 0.2122 -0.0000 -0.0000 0.0000 80.2182 10.3052 28.1727 -49.8250 52.9247 -26.0344 0.0000 -0.0000 -4.5709 -18.0561 10.1836 -3.2988 7.1250 -0.0000 -0.0000 6.3585 -19.3155 3.9215
0.00 0.00 0.00 -23.8779 76.3635 5.0227 0.0000 0.0000 0.0000 0.6357 -16.3199 -64.6471 3.3421 11.2293 33.0571 -0.3271 -10.9062 8.4677 0.0001 -0.0464 -0.1275 0.0000 0.0000 0.0000 21.3156 14.3906 -46.3652 -7.7557 -15.9366 51.6781 -2.0842 6.4516 -26.0299 -0.0502 -1.4462 3.9773 -5.8687 0.3572 42.4073 -1.6294 -0.7565 11.7671 1.5130 0.1235 -6.8097 -8.9341 -0.4763 -24.4623 5.2540 1.3678 25.3370 3.7549 0.4814 12.3520 -0.0000 -0.0000 0.0000 -69.6564 -59.2762 19.7877 15.6777 -25.0817 -3.5082 -0.0000 0.0000 -1.7021 36.0545 26.9272 18.2464 -7.1250 0.0000 -0.0000 7.4023 61.9698 3.0646 -0.0000 -0.0000 0.0000 81.6487 13.3274 32.6103 -48.2836 52.2793 -24.8098 0.0000 -0.0000 -4.0741 -17.4391 10.7965 -3.3676 7.1250 -0.0000 -0.0000 6.7953 -18.7204 4.2850
0.00 0.00 0.00 -29.6338 73.9184 7.9567 0.0000 0.0000 0.0000 4.9232 -15.4508 -75.1880 4.6084 12.9288 39.1024 -0.3098 -9.9659 5.5358 0.0147 0.7822 2.1497 0.0000 0.0000 0.0000 21.2564 14.8249 -53.9334 -7.7322 -15.9187 51.5923 -1.8077 11.0683 -24.2167 -0.0127 -0.7263 1.9959 -7.8712 0.2966 45.1756 -2.3543 -1.8943 12.0030 2.1850 -0.3970 -7.1352 -9.0208 0.3379 -26.4267 5.3523 2.6151 22.0223 3.9205 1.1187 11.3252 0.0000 0.0000 0.0000 -46.1167 -68.8871 -6.8581 13.5197 -22.0439 -2.6452 -0.0000 0.0000 -5.3653 38.2383 29.2348 21.0494 -7.1250 0.0000 -0.0000 10.0011 65.1901 4.9041 0.0000 0.0000 0.0000 82.3977 13.5484 36.7496 -51.3645 53.5312 -27.2677 0.0000 -0.0000 -2.5941 -17.5096 10.8018 -3.3837 7.1250 -0.0000 -0.0000 6.7456 -18.7102 4.2548
0.00 0.00 0.00 -34.9878 71.0116 8.8974 0.0000 0.0000 0.0000 9.9927 -14.8063 -82.6623 6.1196 14.5433 45.4599 -0.1517 -7.1022 0.7526 0.0025 0.3226 0.8865 0.0000 0.0000 0.0000 22.1930 14.7077 -58.5002 -7.6389 -15.8471 51.2513 -1.3038 16.7406 -22.0376 -0.0011 -0.2171 0.5965 -9.4142 0.5468 48.2125 -3.0595 -2.6651 11.5991 2.1112 -0.7289 -6.8824 -9.6346 0.8862 -26.7367 5.5811 3.5695 19.0385 4.1468 1.6198 10.1755 0.0000 0.0000 0.0000 -11.4328 -72.0700 -46.3548 12.6345 -20.7493 -2.3222 -0.0000 0.0000 -11.4883 43.8711 34.1072 28.3278 -7.1250 0.0000 -0.0000 19.3733 72.3845 12.7374 0.0000 0.0000 0.0000 83.6427 12.3999 39.1066 -55.0534 54.8409 -30.2597 0.0000 -0.0000 -4.2013 -16.1996 12.3955 -3.5685 7.1250 -0.0000 -0.0000 7.6637 -17.1599 5.1077
